# xmcd
#
# Track frame offsets: 
#        150
#        11455
#        25947
#        39942
#        51647
#        65887
#        84532
#        101604
#        112925
#        128287
#        141237
#        155600
#        170107
#        182377
#        195060
#
# Disc length: 2808 seconds
#
# Revision: 2
# Processed by: cddbd v1.5.2PL0 Copyright (c) Steve Scherf et al.
# Submitted via: ExactAudioCopyFreeDBPlugin 1.0
#
DISCID=be0af60f
DTITLE=Various Artist - Mexico - Mariachi
DYEAR=1900
DGENRE=Latin
TTITLE0=Las Mañanitas
TTITLE1=Guadalajara
TTITLE2=Cielito Lindo
TTITLE3=La Bikina
TTITLE4=Pelea de Gallos
TTITLE5=La Malagueña
TTITLE6=Ojos Tapatios
TTITLE7=Fina Estampa
TTITLE8=El Tren
TTITLE9=La Botella
TTITLE10=El Mariachi
TTITLE11=Alma Llanera
TTITLE12=Alla en el Rancho Grande
TTITLE13=La Cucaracha
TTITLE14=Las Golondrinas
EXTD=
EXTT0=
EXTT1=
EXTT2=
EXTT3=
EXTT4=
EXTT5=
EXTT6=
EXTT7=
EXTT8=
EXTT9=
EXTT10=
EXTT11=
EXTT12=
EXTT13=
EXTT14=
PLAYORDER=
